<svg width="74" height="24" viewBox="0 0 74 24" fill="none" xmlns="http://www.w3.org/2000/svg"><rect width="74" height="24" rx="4" fill="#101920"/><path fill-rule="evenodd" clip-rule="evenodd" d="M13.44 6a2.643 2.643 0 0 1-.63 1.924c-.219.266-.497.48-.814.626a2.36 2.36 0 0 1-1.013.217 2.499 2.499 0 0 1 .134-.989 2.54 2.54 0 0 1 .512-.863A2.82 2.82 0 0 1 13.439 6Zm1.276 5.07c-.232.4-.358.851-.364 1.311 0 .518.157 1.024.45 1.455.293.43.71.768 1.198.97a5.984 5.984 0 0 1-.857 1.704c-.505.737-1.034 1.457-1.874 1.47-.4.01-.67-.102-.95-.22-.294-.121-.6-.248-1.077-.248-.507 0-.826.13-1.134.257-.266.11-.524.216-.887.23-.8.03-1.411-.787-1.934-1.517-1.046-1.492-1.86-4.204-.769-6.049a2.962 2.962 0 0 1 1.06-1.076c.442-.264.947-.41 1.465-.427.454-.01.89.162 1.271.311.292.115.553.217.766.217.187 0 .44-.098.736-.213.465-.18 1.034-.4 1.614-.34.444.013.879.127 1.27.334.391.206.727.499.982.854a2.764 2.764 0 0 0-.966.977Zm6.762-5.348h.51a.639.639 0 0 0 .72-.61c0-.353-.265-.582-.714-.582a.678.678 0 0 0-.77.6h-.56a1.204 1.204 0 0 1 .862-1.083c.158-.046.323-.058.486-.037.752 0 1.28.422 1.28 1.03a.892.892 0 0 1-.693.876v.045a.887.887 0 0 1 .85.927 1.284 1.284 0 0 1-.924 1.1 1.27 1.27 0 0 1-.502.038 1.264 1.264 0 0 1-1.283-.648 1.277 1.277 0 0 1-.15-.485h.569c.034.366.37.603.864.603.495 0 .817-.266.817-.64 0-.38-.304-.613-.835-.613h-.527v-.52ZM45.74 17.165c-1.045 0-1.81-.519-1.898-1.31h-1.216c.076 1.442 1.265 2.355 3.027 2.355 1.882 0 3.065-.934 3.065-2.426 0-1.166-.677-1.823-2.306-2.21l-.875-.215c-1.024-.254-1.442-.586-1.442-1.15 0-.707.655-1.193 1.612-1.193.958 0 1.613.48 1.685 1.276h1.2c-.04-1.375-1.19-2.32-2.868-2.32-1.695 0-2.89.945-2.89 2.32 0 1.111.678 1.796 2.136 2.15l1.03.248c1.028.254 1.463.625 1.463 1.243 0 .713-.72 1.232-1.723 1.232Zm-23.73-1.243h3.027l.726 2.155h1.304L24.2 10.105h-1.332L20 18.077h1.282l.727-2.155Zm2.713-.994h-2.4l1.184-3.497h.033l1.183 3.497Zm6.12 3.21c1.453 0 2.416-1.16 2.416-2.967 0-1.8-.969-2.967-2.438-2.967a2.048 2.048 0 0 0-1.843 1.028h-.022v-.967h-1.15V20h1.188v-2.879h.027a1.966 1.966 0 0 0 1.822 1.017Zm-.335-4.917c.924 0 1.53.774 1.53 1.95 0 1.188-.606 1.956-1.53 1.956-.908 0-1.52-.784-1.52-1.956 0-1.16.612-1.95 1.52-1.95Zm9.123 1.95c0 1.807-.963 2.967-2.416 2.967a1.956 1.956 0 0 1-1.821-1.017h-.028V20h-1.188v-7.735h1.15v.967h.022a2.058 2.058 0 0 1 1.843-1.028c1.47 0 2.438 1.166 2.438 2.967Zm-1.221 0c0-1.176-.606-1.95-1.53-1.95-.908 0-1.519.79-1.519 1.95 0 1.172.61 1.956 1.519 1.956.924 0 1.53-.768 1.53-1.956Zm12.874-4.281v1.375h1.101v.945h-1.101v3.204c0 .498.22.73.704.73.131-.002.262-.012.391-.028v.94c-.217.04-.438.059-.66.055-1.172 0-1.629-.442-1.629-1.57V13.21h-.842v-.945h.842V10.89h1.194Zm4.484 1.304c-1.673 0-2.745 1.149-2.745 2.977 0 1.834 1.062 2.978 2.745 2.978 1.685 0 2.747-1.144 2.747-2.978 0-1.828-1.068-2.977-2.747-2.977Zm0 .983c.963 0 1.536.74 1.536 1.995 0 1.259-.573 1.994-1.536 1.994-.963 0-1.535-.735-1.535-1.995 0-1.248.572-1.994 1.535-1.994Zm3.727-.912h1.133v.99h.028a1.387 1.387 0 0 1 1.392-1.05c.137-.001.274.014.408.044v1.116a1.654 1.654 0 0 0-.535-.072 1.193 1.193 0 0 0-1.186.825c-.054.165-.071.34-.052.512v3.447h-1.188v-5.812Zm5.947 5.884c1.31 0 2.333-.724 2.493-1.779h-1.129a1.313 1.313 0 0 1-1.337.818 1.504 1.504 0 0 1-1.479-1.014 1.518 1.518 0 0 1-.078-.633v-.072H68v-.409c0-1.762-1.007-2.866-2.61-2.866-1.628 0-2.679 1.182-2.679 3.005 0 1.818 1.046 2.95 2.73 2.95Zm1.37-3.514h-2.895a1.478 1.478 0 0 1 .431-1.046 1.464 1.464 0 0 1 1.044-.429 1.388 1.388 0 0 1 1.335.91c.067.18.096.373.085.566ZM25.165 6.254c-.684.043-1.07.343-1.07.863a.877.877 0 0 0 .6.827c.116.038.238.05.36.038a.966.966 0 0 0 .864-.454h.045v.407h.548V5.958c0-.61-.407-.97-1.13-.97-.652 0-1.118.318-1.176.814h.55c.064-.204.283-.321.6-.321.389 0 .59.172.59.477v.25l-.78.045Zm.78.374v.242a.685.685 0 0 1-.476.605.677.677 0 0 1-.27.027c-.308 0-.533-.151-.533-.412 0-.254.18-.39.576-.416l.703-.046Zm2.075-1.104v2.41h-.568v-2.89h1.896v.48H28.02Zm3.582 2.46c.727 0 1.19-.577 1.19-1.495 0-.919-.463-1.492-1.196-1.492a.998.998 0 0 0-.904.526h-.042v-.478h-.547v3.852h.568v-1.4h.045a.94.94 0 0 0 .886.486Zm-.164-2.475c.481 0 .77.37.77.98 0 .613-.289.982-.773.982-.476 0-.775-.377-.775-.98 0-.605.3-.982.778-.982Zm2.11 3.461v-.491c.062.008.124.011.186.01a.491.491 0 0 0 .52-.403l.043-.14-1.042-2.902h.619l.722 2.296h.045l.72-2.296h.602l-1.074 3.01c-.246.704-.518.93-1.105.93-.047 0-.182-.006-.235-.014Zm3.423-1.856h-.565c.052.584.563.874 1.192.874.711 0 1.177-.364 1.177-.913a.65.65 0 0 0-.563-.65v-.046a.591.591 0 0 0 .454-.592c0-.488-.391-.799-1.076-.799a1.006 1.006 0 0 0-1.134.847h.547c.037-.228.27-.364.587-.364.35 0 .519.162.519.375 0 .241-.175.374-.519.374h-.423v.443h.43c.403 0 .612.133.612.412 0 .26-.233.427-.611.427-.333 0-.57-.133-.627-.388Zm2.622.82v-2.89h.564v1.988h.045l1.327-1.988h.563v2.89h-.563V5.936h-.043l-1.33 1.999h-.563Zm4.695-2.41h.907v-.48h-2.382v.48h.906v2.41h.57v-2.41Zm3.968 1.63a1.175 1.175 0 0 1-1.248.835 1.304 1.304 0 0 1-1.286-.929 1.318 1.318 0 0 1-.044-.563 1.338 1.338 0 0 1 .775-1.394c.174-.078.362-.118.552-.116.802 0 1.286.55 1.286 1.457v.2h-2.034v.031a.766.766 0 0 0 .767.829.688.688 0 0 0 .685-.35h.547Zm-1.999-.932h1.454a.699.699 0 0 0-.708-.75.733.733 0 0 0-.746.75Zm5.707-1.178h-1.298v2.89h1.311c.632 0 1.01-.328 1.01-.833a.661.661 0 0 0-.616-.666V6.39a.619.619 0 0 0 .487-.611c0-.449-.33-.735-.894-.735Zm-.735 1.186v-.748h.626c.302 0 .445.146.445.371 0 .245-.164.377-.508.377h-.563Zm0 1.267V6.65h.603c.383 0 .587.135.587.425 0 .273-.18.422-.516.422h-.674Z" fill="#fff"/></svg>