<svg width="78" height="24" viewBox="0 0 78 24" fill="none" xmlns="http://www.w3.org/2000/svg"><rect width="78" height="24" rx="4" fill="#101920"/><path d="M12.537 11.64 6.06 18.67l.001.005c.199.763.88 1.325 1.69 1.325.323 0 .626-.09.887-.246l.02-.013 7.29-4.301-3.412-3.8Z" fill="#EB3131"/><path d="m19.089 10.444-.006-.005-3.148-1.865L12.39 11.8l3.559 3.638 3.13-1.847c.549-.304.922-.896.922-1.577 0-.679-.367-1.267-.911-1.571Z" fill="#F6B60B"/><path d="M6.06 5.329c-.04.146-.06.3-.06.46V18.21c0 .16.02.313.06.46l6.699-6.85-6.7-6.492Z" fill="#5778C5"/><path d="m12.584 12 3.352-3.427-7.281-4.317A1.722 1.722 0 0 0 7.75 4c-.81 0-1.492.563-1.69 1.327l-.001.002L12.584 12Z" fill="#3BAD49"/><path fill-rule="evenodd" clip-rule="evenodd" d="M24.464 6.874c.167.292.397.521.689.688.292.166.615.25.97.25.297 0 .57-.059.82-.174a1.85 1.85 0 0 0 .64-.484l-.404-.387c-.284.343-.634.515-1.05.515-.25 0-.477-.057-.682-.171a1.253 1.253 0 0 1-.486-.484c-.12-.21-.18-.45-.18-.721 0-.272.06-.512.18-.721.119-.21.281-.37.486-.484.205-.114.432-.171.681-.171.202 0 .38.037.536.112.155.075.296.187.422.336l.395-.382A1.745 1.745 0 0 0 26.123 4c-.355 0-.678.083-.97.25a1.817 1.817 0 0 0-.69.688 1.911 1.911 0 0 0-.25.968c0 .353.083.676.25.968Zm4.313-2.793h-.564V7.73h.564V6.06h.03l1.512 1.67h.738V7.7l-1.63-1.763 1.548-1.824v-.03h-.707l-1.46 1.767h-.031V4.081Zm4.902 2.191-.41-1.118-.138-.418h-.03l-.139.418-.41 1.118h1.127Zm-.886-2.19h.64l1.389 3.647h-.62l-.338-.937h-1.496l-.338.937h-.62l1.383-3.648Zm3.304 2.323c.335 0 .617-.1.846-.301v1.625h.558V4.081h-.558v1.447a.924.924 0 0 1-.738.347c-.219 0-.393-.06-.523-.181-.13-.12-.194-.291-.194-.512v-1.1h-.569v1.197c0 .23.051.43.154.6.102.17.243.3.422.39.18.09.38.136.602.136Zm4.17-.133-.41-1.118-.138-.418h-.03l-.139.418-.41 1.118h1.127Zm-.886-2.19h.64l1.389 3.647h-.62l-.338-.937h-1.496l-.338.937h-.62l1.383-3.648Zm1.952.53h1.03v3.117h.563V4.611h1.024v-.53h-2.617v.53Zm4.584 2.593a.677.677 0 0 0 .354-.092.656.656 0 0 0 0-1.124.662.662 0 0 0-.354-.094h-.819v1.31h.82ZM44.534 4.08h.564v1.3h.779c.228 0 .44.046.635.14.194.093.35.229.466.407.116.178.174.387.174.624a1.117 1.117 0 0 1-.64 1.035 1.428 1.428 0 0 1-.635.142h-1.343V4.081Zm4.99 0h-.558v3.65h.614l1.67-2.771h.031l-.03.703V7.73h.558V4.081h-.64l-1.645 2.721h-.03l.03-.703V4.08Zm3.389 3.496a1.187 1.187 0 0 1-.474-.693l.517-.204c.044.19.13.34.259.449.128.108.28.163.453.163a.703.703 0 0 0 .482-.176.557.557 0 0 0 .102-.744.672.672 0 0 0-.266-.222.838.838 0 0 0-.369-.081h-.302v-.49h.271c.185 0 .338-.05.461-.15a.495.495 0 0 0 .185-.405.47.47 0 0 0-.172-.372.633.633 0 0 0-.428-.148.574.574 0 0 0-.389.138.72.72 0 0 0-.22.326l-.497-.204c.071-.2.202-.377.392-.532.19-.155.43-.232.72-.232.221 0 .419.043.591.13.173.087.308.206.405.357a.926.926 0 0 1 .146.512.838.838 0 0 1-.466.785v.03c.174.078.316.192.425.341a.9.9 0 0 1 .164.546c0 .207-.054.395-.162.565a1.12 1.12 0 0 1-.443.4 1.356 1.356 0 0 1-.63.145 1.32 1.32 0 0 1-.755-.234Zm11.051 10.039h-1.1v-7.313h1.1v7.313Zm7.55-1.508 1.262-3.171H74l-3.026 6.896h-1.148l1.12-2.465-1.964-4.431h1.186l1.309 3.17h.038Zm-5.842.056c0 .442.502.62.863.62a1.33 1.33 0 0 0 1.309-1.156c-.294-.141-.522-.245-1.006-.245-.54 0-1.166.216-1.166.78Zm-.968-2.268c.341-.77 1.167-1.119 1.964-1.119 1.261 0 2.238.724 2.238 2.023v2.803h-1.062v-.564h-.038c-.257.386-.664.715-1.404.715-.968 0-1.83-.63-1.83-1.61 0-1.071 1.071-1.645 2.124-1.645.522 0 .948.169 1.148.282v-.076c-.01-.602-.588-.94-1.157-.94-.409 0-.797.131-1.006.536l-.977-.405Zm-6.403-.069h1.565a1.28 1.28 0 0 0 1.29-1.253c0-.578-.467-1.254-1.29-1.254h-1.565v2.507Zm-1.1-3.524h2.637c1.22 0 2.419.875 2.419 2.27 0 1.396-1.2 2.272-2.419 2.272h-1.537v2.77h-1.1v-7.312Zm-13.14 4.985c0 .867.637 1.498 1.397 1.498.751 0 1.34-.631 1.34-1.498 0-.876-.589-1.518-1.34-1.518-.76 0-1.396.642-1.396 1.518Zm2.623-1.942h.038v-.405h1.045v4.467c0 1.838-1.093 2.592-2.385 2.592-1.216 0-1.948-.81-2.223-1.47l.96-.396c.17.405.589.886 1.263.886.827 0 1.34-.509 1.34-1.461V17.2h-.038c-.247.302-.722.566-1.32.566-1.255 0-2.405-1.084-2.405-2.479 0-1.405 1.15-2.498 2.404-2.498.599 0 1.074.265 1.32.556Zm2.945 4.27h-1.102v-7.314h1.102v7.314Zm2.936-3.864c-.56 0-1.34.49-1.31 1.451l2.241-.924c-.123-.31-.493-.527-.93-.527Zm-.037-.962c1.301 0 1.938 1.027 2.147 1.584l.114.282-3.354 1.377c.256.499.655.753 1.216.753.56 0 .95-.273 1.235-.688l.856.566a2.5 2.5 0 0 1-2.091 1.102c-1.425 0-2.49-1.093-2.49-2.487 0-1.48 1.074-2.489 2.367-2.489Zm-24.575 1.82v-1.056h3.582c.038.188.057.414.057.66 0 .791-.22 1.771-.922 2.469-.684.706-1.558 1.084-2.717 1.084-2.148 0-3.953-1.734-3.953-3.865 0-2.13 1.805-3.864 3.953-3.864 1.188 0 2.033.463 2.67 1.066l-.751.744a2.724 2.724 0 0 0-1.92-.754 2.782 2.782 0 0 0-2.793 2.808 2.783 2.783 0 0 0 2.794 2.809c1.016 0 1.596-.405 1.967-.773.303-.301.503-.735.579-1.329h-2.546Zm5.118.669c0 .885.656 1.507 1.415 1.507.76 0 1.417-.622 1.417-1.507 0-.896-.656-1.508-1.417-1.508-.76 0-1.415.612-1.415 1.508Zm-1.102 0c0-1.442 1.13-2.489 2.517-2.489 1.388 0 2.519 1.047 2.519 2.489 0 1.432-1.131 2.488-2.519 2.488-1.387 0-2.517-1.056-2.517-2.488Zm6.595 0c0 .885.655 1.507 1.416 1.507.76 0 1.415-.622 1.415-1.507 0-.896-.655-1.508-1.415-1.508s-1.416.612-1.416 1.508Zm-1.102 0c0-1.442 1.13-2.489 2.518-2.489 1.387 0 2.518 1.047 2.518 2.489 0 1.432-1.131 2.488-2.518 2.488-1.387 0-2.518-1.056-2.518-2.488Z" fill="#fff"/></svg>