<svg width="160" height="50" viewBox="0 0 160 50" fill="none" xmlns="http://www.w3.org/2000/svg"><path d="M-14.755 58.95c4.443-1.122 6.758-1.956 11.173-4.892 10.408-6.92 17.538-13.493 26.157-22.931C23.837 29.744 37.942 13.84 39.43 7.95c.3-1.19-2.371.968-3.138 1.927-5.65 7.065-13.044 19.635-15.305 28.192-1.792 6.781-2.466 16.527 8.585 12.171 10.08-3.972 23.47-17.955 30.069-25.397 3.42-3.857 6.33-8.14 9.351-12.318 4.86-6.72 2.151-5.71 2.424-.41.34 6.612.324 14.21 9.404 16.02 13.417 2.676 29.976-7.34 40.284-12.622 6.718-3.442 12.798-8.124 19.725-11.123 12.127-5.252 9.372-.03 7.969 9.38-1.126 7.561-6.936 22.095.663 22.924 9.434 1.028 33.632-21.623 36.09-22.66" stroke="#fff" stroke-width="4" stroke-linecap="round"/></svg>