<svg width="40" height="40" viewBox="0 0 40 40" fill="none" xmlns="http://www.w3.org/2000/svg"><g clip-path="url(#a)" fill="#345066"><path d="M26.222 22.066c.894.002 1.787.003 2.702-.01.02-.015.018-.018.018-.018v1.411h1.39v1.37h2.774v-1.36c.473 0 .916 0 1.372.032.014.462.014.893.014 1.361h1.383v1.361h1.362v1.375h1.368v1.38h-2.73v2.758h-1.364v1.385h1.34v1.383h-2.723v1.376h1.348v1.375h1.375v-1.352h2.77c0-.457 0-.882-.014-1.33-.014-.022-.016-.02-.016-.02h1.395v4.075h-1.362v-1.344h-1.372v1.357h-2.75v1.363h-8.271v-1.346h2.72v-1.37h-1.338v-1.395h1.34v-1.376h-2.718v-1.378h1.339V31.75h-1.358c0-.468 0-.911.005-1.379.006-.023.001-.018.028-.018h1.349V27.6h1.348v-1.392h-5.481v-4.142c.465 0 .911 0 1.357.026v2.723h1.409c0-.933 0-1.845-.003-2.754-.002 0-.006.005-.006.005Zm3.802 11.055h3.066v-4.127h-4.106v4.127h1.04Zm1.085 1.382h-.754v4.117h1.358v-4.117h-.604Zm1.702-6.9h.286v-1.357h-1.354v1.358h1.068ZM1.409 17.976.363 17.94c-.112-.003-.224 0-.349 0v-4.144h2.739c0-.465 0-.909.006-1.377.007-.025.002-.02.002-.02.436.004.873.008 1.335.01.025-.002.02-.006.026.02.005.462.005.897.005 1.359h1.39v1.404h1.386v1.37h.513c.75.007 1.5.015 2.249.02-.002-.003-.007-.007-.007.02v1.349H8.293v1.369h2.748v1.358h1.353v-2.743h-1.357c0-.469 0-.914-.003-1.358l-.007.007c.408-.008.816-.02 1.223-.022.96-.003 1.92-.001 2.902-.001v2.753h-1.368c0 1.836 0 3.65-.03 5.493-.474.036-.918.046-1.355.024.007-.932.007-1.832.007-2.745h-1.357v2.766c.46 0 .904 0 1.353.027.005.471.006.915.006 1.358h-1.375v2.714c-.001.025.003.02.003.02H6.892c0-.449 0-.882.027-1.343.926-.027 1.826-.027 2.722-.027v-1.36H6.888c.002-.443.005-.887.043-1.367.927-.036 1.819-.036 2.712-.036v-1.387H8.288v-1.393c.448 0 .883 0 1.333.002.02-.017.023-.035.032-.08.004-.44.004-.856.004-1.295-1.415 0-2.794 0-4.17.002.004.003.009.009.015-.017-.004-.476-.015-.926 0-1.364.471.011.916.011 1.372.011v-1.36H5.486c0 .46 0 .904-.025 1.353-.457.006-.889.006-1.343.006l.001 1.377c.002-.002.006-.005-.02-.001-.46.003-.894.003-1.358.003v1.396H1.389v2.778c.463 0 .914 0 1.366-.003 0-.002-.004-.004-.004-.004v1.359h1.366v1.37H2.763v1.368H.011v-8.248h1.368c0-.913 0-1.804.033-2.732.466-.037.898-.037 1.323-.037v-1.366H1.41v1.398Z"/><path d="M23.433 31.72h-1.36v1.383h-1.38v-2.737h-1.368v4.126h2.73v1.375h1.37v4.132h-4.102v-1.356h1.351v-2.741h-1.36v1.36h-2.758v1.355h-1.384c0-.897 0-1.79.022-2.707.922-.026 1.822-.026 2.725-.026v-1.37h-2.755v1.374c-.447-.002-.893-.004-1.365-.001-.025.004-.022.008-.018-.018.003-.47.003-.912.003-1.35h-1.385c0 .47 0 .924.002 1.375a.097.097 0 0 1 .005-.007h-1.355V33.12h2.73v-1.375h1.39c0-.468 0-.912.022-1.374.485-.027.948-.035 1.392-.019-.02.475-.02.926-.02 1.365h1.352v-1.383c-.452 0-.886 0-1.338-.02-.012-.46-.006-.9-.003-1.338-.002.002-.006.006.021.004.46-.002.892-.002 1.322-.002v-2.747c-.46 0-.904 0-1.347.003.003.002.007.007-.004-.018a16.5 16.5 0 0 1 .037-1.384c.913.003 1.802.003 2.716.003v4.127h1.377v-1.338h5.524v2.729l.008-.008c-.924.002-1.85.006-2.785-.006-.007-.46-.007-.902-.007-1.346h-1.356v1.372h1.324c.012.436.024.873.03 1.334-.006.025-.003.021-.003.021ZM0 .696V.02h9.645v9.625H0V.695Zm1.376 5.856v1.703h6.882V1.396H1.376v5.156Zm7.258 23.801h1.008v9.644H.02v-9.644h8.614Zm-7.258 2.14v6.125h6.882v-6.86H1.376v.734ZM32.851 0h7.127v9.647H30.36V0h2.491Zm5.773 1.531c.026-.224-.143-.152-.246-.152-2.14-.003-4.28-.003-6.42-.002-.072 0-.145.01-.216.016v6.864h6.882V1.531Zm-22.047 6.76c-.45-.003-.901-.007-1.374-.028-.022-.465-.022-.914-.022-1.365H13.77c.004-.908.009-1.816.009-2.75-.004-.024-.008-.02-.008-.02h1.384V1.392h-4.103V.013h5.505v1.362h2.75v1.37h1.367V4.12h-1.355v1.388c-.463 0-.89 0-1.35-.038-.033-.927-.033-1.816-.033-2.702h-1.361v2.766l1.394-.067v1.418h-1.412c0 .477 0 .92.008 1.386.008.024.012.021.012.021Z"/><path d="M16.572 8.296c.443.002.887.002 1.355.002v1.347h1.377V6.908h1.38v4.12h1.372v2.747h1.386c0 .46 0 .894-.005 1.352-.006.025-.004.022-.004.022h-1.356v1.395H20.7v-1.358h-4.13v-1.388h4.105V12.42h-1.354v-1.366h-1.373v1.336h-1.39c0-1.352 0-2.7.009-4.074.01-.026.005-.023.004-.02ZM28.977 12.4c.437.004.873.008 1.335.01.025-.002.022-.006.026.02.004.469.004.91.004 1.345h1.37c0-.466 0-.918-.003-1.369l-.006.006h2.773v1.37h-1.357v1.386h-1.378v1.386h1.352v1.384h-1.354v4.132c-.927 0-1.836 0-2.77-.016-.027-.016-.024-.013-.023-.012.007-.758.015-1.517.021-2.276v-.443h1.359V16.56h-1.357c0-1.387 0-2.752.006-4.141.007-.025.002-.02.002-.02Zm-11.029 8.297v-1.364h-1.37V17.96h2.726v1.34h2.747v-1.338h4.168c0 .439 0 .874.003 1.334.004.025.008.021-.02.022H23.45v1.384h-1.393v5.507H20.68v-5.521c-.933 0-1.836 0-2.736.002l.005.006Zm16.568 1.369h-1.387v-4.12h5.493V15.19h1.358v6.87h-1.347v-2.725h-1.375v2.738c-.462 0-.896 0-1.355-.003-.025-.002-.02-.003-.027-.03-.006-.917-.006-1.808-.006-2.702h-1.366c0 .924 0 1.827.003 2.73.003.002.009-.002.009-.002ZM9.66 12.412h1.365v1.374c.918 0 1.806 0 2.714-.018.02-.018.017-.021.017-.021v1.42h-2.724c0 .474 0 .919-.002 1.39-.003.028.001.023-.022.015-.466-.004-.908 0-1.35.004 0 0 .005.004.004-.02l-.001-1.387H8.297c0-.488 0-.94-.004-1.394-.004 0-.004.009.022.011.459.003.89.003 1.352.003 0-.482 0-.934-.002-1.383l-.005.006Z"/><path d="m15.153 24.828.02-2.395c.002-.111.001-.223.001-.362h1.375v-1.372l1.373-.001c.026-.001.022-.005.017.02-.006.466-.006.908-.006 1.372h1.36v1.372h-2.706c0 .473 0 .925-.027 1.375l-1.407-.009Zm.012 5.517h-1.382c0-.91 0-1.799-.005-2.713-.005-.025-.008-.021.018-.026.47-.004.911-.004 1.388-.004 0-.47 0-.913.026-1.365.474-.005.922 0 1.37.004 0 0-.005-.005-.014.02-.004.922 0 1.822.004 2.72 0 0 .004-.003-.02-.003h-1.386v1.367ZM13.772 9.66c.003.904.007 1.808.005 2.736-.005.025-.001.02-.001.02h-1.358V11.05h-1.366V8.272c.427 0 .867 0 1.33-.005.023-.006.019-.004.022.024.003.472.003.914.003 1.379.481 0 .926 0 1.37-.003-.001-.003-.005-.006-.005-.006Zm13.799-4.182V4.143h-1.353c0-.93 0-1.827.005-2.75.005-.024.002-.02.002-.02.448.002.896.004 1.369.017.024.011.021.008.021.008v1.35h1.338v2.758c-.453 0-.896 0-1.363-.015-.023-.014-.019-.013-.019-.013ZM13.772 35.89c-.002.906-.002 1.815-.002 2.747h-1.357V40h-1.364v-2.727h1.359l-.001-1.359c-.001-.027-.005-.022.02-.025.467 0 .909.003 1.35.006l-.005-.006Zm9.641-31.753h1.39v2.74h-2.728V5.53h1.368c0-.467 0-.909-.013-1.373-.013-.022-.017-.019-.017-.019Zm15.181 30.404c-.327-.013-.656-.026-.984-.037-.112-.004-.224 0-.348 0v-2.748h2.717v1.35h-1.362c0 .48 0 .931-.013 1.41-.013.028-.011.025-.01.025Zm.002-22.157v1.405H37.25v1.379c-.471 0-.916 0-1.38-.02-.021-.018-.017-.016-.017-.016V12.41c.926 0 1.814 0 2.724-.012.022-.012.02-.015.02-.015Zm-9.612.009c-.45-.002-.904-.002-1.381-.002v1.378H26.22c0-.895 0-1.801.013-2.732.014-.023.01-.02.01-.02l2.33.02h.395c0 .447 0 .88.004 1.338.005.024.01.02.012.018Z"/><path d="M26.248 11.013c-.462-.002-.926-.002-1.406-.002V8.29h1.376c0 .903 0 1.794.013 2.707.013.02.016.018.017.017Zm9.626 12.421 2.34.019h.388v1.385c-.897 0-1.79 0-2.707-.02-.023-.475-.022-.93-.02-1.384ZM5.488 20.688c.005.736.013 1.475.021 2.214.002.161.001.322.009.51a21.19 21.19 0 0 1-1.374.032c-.024-.003-.018-.006-.015-.033 0-.925-.002-1.823-.004-2.722 0 0-.004.003.021.005l1.35.003-.008-.009Zm-2.72-8.295C1.86 12.391.95 12.391.02 12.391v-1.333h2.731c0 .425 0 .858.005 1.317.005.024.01.02.012.018Zm1.355.017.001-1.354h2.764c0 .438 0 .873-.01 1.33-.011.024-.013.019-.04.022-.925 0-1.823-.002-2.721-.004l.006.006Zm19.307 2.743h1.38v1.397h-1.374c0-.46 0-.903-.002-1.374-.001-.027-.003-.024-.005-.023Zm-.002 16.572 1.38.001v1.372H23.44c0-.442 0-.883-.004-1.351-.003-.027-.006-.023-.008-.022Zm-17.915-8.27c.45-.023.896-.023 1.4-.023 0 .48 0 .931.006 1.41-.458.026-.92.026-1.413.026 0-.5 0-.945.007-1.413Z"/><path d="M4.117 23.438c-.003.451-.003.904-.003 1.404-.434 0-.874 0-1.338.01-.025.011-.02.013-.024-.012-.003-.475-.003-.927-.003-1.402h1.377s-.006.003-.009 0Zm20.979 13.825-.258-.012v-1.354h1.357v1.366h-1.099ZM24.782 1.36c.014-.328.029-.656.04-.984.005-.113.002-.226.002-.358h1.396c0 .436 0 .87.003 1.33.002.025.005.02.008.019-.467 0-.935.004-1.427-.003-.023-.01-.022-.004-.022-.004ZM6.865 12.411c.456 0 .915 0 1.398-.002.025 0 .026-.005.021.022-.002.469.002.91.005 1.353 0 0 0-.008-.023-.003-.466.005-.909.005-1.401.005v-1.381s.002.005 0 .006Zm28.982 2.717v1.413h-1.345v-1.37c.447 0 .883 0 1.334-.02.017-.02.013-.021.011-.023Zm-8.281-9.653c-.002.461-.002.924-.002 1.404h-1.332V5.507c.432 0 .866 0 1.32-.014.019-.015.015-.016.014-.018ZM13.76 13.752c.008-.427.014-.856.018-1.31-.002-.025-.006-.021-.008-.019.454.002.91.002 1.385.002v1.358c-.447 0-.899 0-1.375-.018-.024-.018-.021-.015-.02-.013Zm.01-5.452c.45-.006.9-.012 1.38-.013.028.45.028.896.028 1.373h-1.38c-.026 0-.022.004-.018-.02.003-.465 0-.907-.004-1.347l-.007.007Zm16.569 4.11c.002-.444.002-.89.002-1.354h1.382c0 .437 0 .871-.01 1.33-.01.026-.006.023-.03.024a375.63 375.63 0 0 1-1.35-.006l.006.006Zm-2.171-4.133h.784V9.65h-1.348V8.277h.564Zm-5.141 0h.404v1.368h-1.346V8.277h.942Z"/><path d="M13.75 6.892c.028.45.029.902.024 1.381-.005.027 0 .022-.025.014-.465-.014-.907-.019-1.348-.024 0 0 .004-.002.005 0v-1.37h1.344Zm9.67-2.76c-.442-.003-.885-.003-1.341-.003V2.75c.43 0 .853 0 1.3-.01.022-.011.02-.014.02-.014.014.453.028.906.028 1.385-.014.026-.01.023-.008.02Zm-9.644-.01c-.443-.002-.888-.002-1.35-.002V2.773h1.357c0 .434 0 .868-.006 1.328-.006.027-.002.023 0 .021Zm9.617-2.718c.447-.01.895-.019 1.366-.036.023-.008.022-.013.019-.015.022.456.046.914.072 1.409-.493 0-.946 0-1.425-.018-.026-.018-.024-.015-.024-.015.009-.428.016-.856.01-1.306-.016-.022-.018-.02-.018-.02Zm4.227-.001V.012h1.332v1.366c-.429 0-.86 0-1.316.01-.022.01-.019.013-.017.015ZM23.397 1.4h-1.314V.019h1.351c0 .452 0 .895-.02 1.361l-.017.02ZM8.29 12.412c.002-.445.002-.89.002-1.356h1.366l.001 1.33c.001.026.005.022-.02.024-.467 0-.909-.003-1.35-.006v.008Zm2.74 16.567c.444.002.89.002 1.357.002v1.35h-1.354c0-.434 0-.869.002-1.331 0-.027-.003-.023-.005-.021Zm27.571-16.59c.002-.435.002-.871.002-1.33h1.384v1.351c-.448 0-.892 0-1.363-.013-.028-.013-.025-.01-.023-.008Zm-26.198 13.87c.438-.029.88-.03 1.347-.028.025.004.02.001.027.028.001.468-.003.91-.007 1.352l.005-.006c-.443-.002-.888-.002-1.368-.002 0-.45 0-.884-.004-1.344Zm-5.536-.029c.028.444.026.885.027 1.354-.45.027-.904.027-1.37.027v-1.384c.447 0 .88 0 1.343.002Zm33.011-1.393c.06.037.117.074.117.111.007.416.005.833.005 1.263h-1.362v-1.375h1.24Z"/><path d="M13.776 26.237a81.98 81.98 0 0 0 0-1.377c.435-.027.877-.026 1.345-.027a13 13 0 0 1 .035 1.382c-.476.015-.931.016-1.386.017l.006.005Zm14.004-8.296c-.08-.053-.179-.104-.18-.159-.014-.396-.008-.793-.008-1.205h1.359v1.364h-1.17Zm-1.556 1.383c.442.002.886.002 1.35.002v1.37H26.25c-.026-.002-.02 0-.027-.026-.002-.468.002-.91.006-1.352l-.006.006Zm9.653 4.087c-.436.033-.878.039-1.346.05-.03-.444-.033-.895-.026-1.37.01-.025.005-.02.029-.02l1.348-.004h-.006c-.002.437-.003.878.001 1.344Zm-9.653-2.719c-.003.439-.005.88-.004 1.347.002.027.006.023-.018.027-.48.005-.934.005-1.384-.021.006-.459.006-.89.006-1.349h1.406s-.005-.002-.006-.004Zm5.361 9.662c.065.05.134.1.135.151.01.398.005.797.005 1.214h-1.362v-1.366h1.222ZM6.462 2.753h.412v4.121H2.765V2.753h3.697ZM4.008 33.121h2.864v4.128H2.767V33.12h1.24ZM33.11 4.523V2.768h4.12v4.117h-4.12V4.523Z"/></g><defs><clipPath id="a"><rect width="40" height="40" rx="1" fill="#fff"/></clipPath></defs></svg>