<svg width="68" height="22" viewBox="0 0 68 22" fill="none" xmlns="http://www.w3.org/2000/svg"><path d="M29.04 11.924c.377 0 .659-.044.847-.133.332-.156.498-.465.498-.925 0-.498-.16-.832-.482-1.003-.18-.097-.452-.145-.813-.145h-1.942v2.206h1.893Zm-.167 1.36h-1.725v3.22h-1.631V8.292h3.92c.56.011.99.082 1.293.212.302.13.557.321.767.574.173.208.31.438.412.69.1.254.152.542.152.865 0 .39-.096.773-.288 1.15-.192.377-.508.644-.949.8.37.152.63.368.784.649.154.28.23.709.23 1.284v.552c0 .376.015.63.044.764a.686.686 0 0 0 .303.468v.206h-1.838a4.127 4.127 0 0 1-.179-1.148l-.01-.764c-.008-.523-.1-.873-.28-1.047-.179-.175-.514-.262-1.005-.262m7.601-.425c-.026-.42-.15-.738-.371-.956a1.137 1.137 0 0 0-.827-.326c-.358 0-.636.115-.833.346-.197.23-.32.542-.371.936h2.402Zm1.529 1.861c-.04.36-.223.726-.548 1.098-.506.59-1.214.886-2.125.886a2.949 2.949 0 0 1-1.99-.747c-.574-.498-.862-1.307-.862-2.43 0-1.05.26-1.857.778-2.418.519-.56 1.192-.841 2.02-.841.491 0 .934.095 1.328.284.394.19.72.489.976.897.231.36.381.778.45 1.254.04.279.056.68.049 1.204h-4.045c.022.609.208 1.036.559 1.281.213.153.47.229.77.229.318 0 .576-.093.775-.279.108-.1.204-.24.287-.418h1.578m2.931-4.463c.737 0 1.34.15 1.806.451.462.305.728.829.797 1.572H41.99a.96.96 0 0 0-.168-.485c-.17-.215-.459-.323-.867-.323-.336 0-.576.054-.719.161-.142.108-.214.234-.214.38 0 .181.076.313.228.395.152.085.689.232 1.61.44.615.149 1.076.373 1.383.674.303.305.455.686.455 1.143 0 .601-.218 1.093-.653 1.473-.436.381-1.109.571-2.02.571-.929 0-1.615-.201-2.057-.604-.443-.403-.664-.917-.664-1.54h1.566c.033.282.104.482.212.601.192.212.546.318 1.063.318.303 0 .545-.047.723-.14.18-.092.269-.232.269-.418a.454.454 0 0 0-.217-.406c-.145-.093-.682-.253-1.61-.48-.669-.17-1.14-.384-1.415-.64-.275-.253-.413-.617-.413-1.092 0-.561.215-1.043.643-1.446.428-.403 1.03-.605 1.808-.605m4.98.173v6.074h-1.567V10.43h1.567Zm0-2.19v1.466h-1.567V8.24h1.567m2.224 5.267c0 .56.109 1.008.326 1.342.213.338.538.508.976.508.437 0 .77-.168.997-.502.228-.334.342-.767.342-1.298 0-.743-.183-1.274-.548-1.594a1.16 1.16 0 0 0-.78-.29c-.453 0-.784.176-.995.527-.212.35-.318.787-.318 1.307Zm4.164-5.205v8.202H50.8v-.84c-.22.36-.471.621-.753.785-.282.163-.633.245-1.052.245-.69 0-1.272-.287-1.743-.86-.472-.575-.707-1.311-.707-2.21 0-1.037.232-1.852.696-2.447.465-.594 1.085-.891 1.863-.891.357 0 .675.08.953.242a1.9 1.9 0 0 1 .679.671V8.303H52.3m4.548 4.557c-.026-.42-.15-.738-.371-.956a1.137 1.137 0 0 0-.827-.326c-.358 0-.636.115-.833.346-.197.23-.32.542-.37.936h2.401Zm1.529 1.861c-.04.36-.223.726-.548 1.098-.506.59-1.214.886-2.125.886a2.948 2.948 0 0 1-1.99-.747c-.575-.498-.862-1.307-.862-2.43 0-1.05.26-1.857.778-2.418.519-.56 1.192-.841 2.02-.841.491 0 .934.095 1.328.284.394.19.72.489.976.897.231.36.381.778.45 1.254.04.279.056.68.048 1.204h-4.044c.022.609.208 1.036.559 1.281.213.153.47.229.77.229.318 0 .576-.093.775-.279.108-.1.204-.24.287-.418h1.578m4.32-2.646c-.152-.312-.441-.468-.867-.468-.525 0-.885.228-1.08.685-.1.242-.152.55-.152.925v3.288H59.06v-6.063h1.49v.886c.2-.312.387-.537.565-.674.318-.245.72-.368 1.209-.368.61 0 1.11.164 1.499.493.388.329.582.874.582 1.636v4.09h-1.582V12.81c0-.319-.042-.564-.125-.735M68 15.373v1.187l-.732.028c-.73.026-1.228-.104-1.496-.39-.174-.182-.26-.462-.26-.841v-3.74h-.825v-1.13h.825V8.793h1.529v1.694H68v1.13h-.96v3.21c0 .25.03.404.092.466.061.061.25.091.564.091a4.623 4.623 0 0 0 .303-.01ZM21.405 0H5.352C2.396 0 0 2.462 0 5.5v11C0 19.538 2.396 22 5.351 22h10.703c2.956 0 5.352-2.462 5.352-5.5V0Zm-.702.722V16.5c0 2.635-2.085 4.778-4.649 4.778H5.351c-2.563 0-4.649-2.143-4.649-4.778v-11c0-2.635 2.086-4.778 4.65-4.778h15.351" fill="#8497A6"/><path d="M10.69 10.728c-1.423-1.201-4.507-.447-4.84-1.943-.175-.787.589-1.483 1.577-1.483.89 0 1.782.205 2.121 1.48h1.141v1.946Zm6.997-2.482h-2.57l-2.445 2.752V5.5H10.69v1.332a3.358 3.358 0 0 0-.21-.254c-.72-.785-1.76-1.183-3.089-1.183-1.536 0-2.41.707-2.873 1.3-.574.735-.83 1.74-.653 2.558.46 2.12 2.373 2.458 3.778 2.646 1.11.148 2.171.355 2.143 1.371-.03 1.055-1.186 1.315-1.945 1.315-1.978 0-2.045-1.503-2.045-1.503H3.668c.03.564.197 1.47.872 2.248.74.851 1.85 1.283 3.3 1.283 1.111 0 2.123-.372 2.85-1.033v.908h1.982v-2.595l.702-.79 2.004 3.385h2.309l-2.916-4.957 2.916-3.285Z" fill="#8497A6"/></svg>