<svg width="32" height="32" viewBox="0 0 32 32" fill="none" xmlns="http://www.w3.org/2000/svg">
<path d="M0 8C0 3.58172 3.58172 0 8 0H24C28.4183 0 32 3.58172 32 8V24C32 28.4183 28.4183 32 24 32H8C3.58172 32 0 28.4183 0 24V8Z" fill="#F3F5F6"/>
<path fill-rule="evenodd" clip-rule="evenodd" d="M19.5307 21.8675C19.7239 22.0043 19.9729 22.0385 20.1949 21.9545C20.4169 21.8699 20.5801 21.6803 20.6293 21.4505C21.1507 19.0001 22.4155 12.7979 22.8901 10.5689C22.9261 10.4009 22.8661 10.2263 22.7341 10.1141C22.6021 10.0019 22.4191 9.96949 22.2559 10.0301C19.7401 10.9613 11.9922 13.8683 8.82544 15.0401C8.62444 15.1145 8.49364 15.3077 8.50024 15.5195C8.50744 15.7319 8.65024 15.9161 8.85604 15.9779C10.2762 16.4027 12.1404 16.9937 12.1404 16.9937C12.1404 16.9937 13.0116 19.6247 13.4658 20.9627C13.5228 21.1307 13.6542 21.2627 13.8276 21.3083C14.0004 21.3533 14.1852 21.3059 14.3142 21.1841C15.0438 20.4953 16.1718 19.4303 16.1718 19.4303C16.1718 19.4303 18.3151 21.0017 19.5307 21.8675ZM12.9246 16.6613L13.932 19.9841L14.1558 17.8799C14.1558 17.8799 18.048 14.3693 20.2669 12.3683C20.3317 12.3095 20.3407 12.2111 20.2867 12.1421C20.2333 12.0731 20.1349 12.0569 20.0611 12.1037C17.4894 13.7459 12.9246 16.6613 12.9246 16.6613Z" fill="#345066"/>
</svg>
