<svg width="32" height="32" viewBox="0 0 32 32" fill="none" xmlns="http://www.w3.org/2000/svg">
<path d="M0 8C0 3.58172 3.58172 0 8 0H24C28.4183 0 32 3.58172 32 8V24C32 28.4183 28.4183 32 24 32H8C3.58172 32 0 28.4183 0 24V8Z" fill="#F3F5F6"/>
<path d="M16.6556 21C11.7277 21 8.91692 17.6216 8.7998 12H11.2683C11.3494 16.1261 13.1691 17.8739 14.6106 18.2342V12H16.935V15.5586C18.3584 15.4054 19.8537 13.7838 20.3582 12H22.6826C22.2952 14.1982 20.6736 15.8198 19.5204 16.4865C20.6736 17.027 22.5205 18.4414 23.2232 21H20.6646C20.115 19.2883 18.7458 17.964 16.935 17.7838V21H16.6556Z" fill="#345066"/>
</svg>
