<svg width="32" height="32" viewBox="0 0 32 32" fill="none" xmlns="http://www.w3.org/2000/svg">
<path d="M0 8C0 3.58172 3.58172 0 8 0H24C28.4183 0 32 3.58172 32 8V24C32 28.4183 28.4183 32 24 32H8C3.58172 32 0 28.4183 0 24V8Z" fill="#F3F5F6"/>
<path d="M22.6918 15.69C22.6931 15.69 22.694 15.69 22.6952 15.69C22.7805 15.69 22.8618 15.6542 22.9195 15.5916C22.9782 15.528 23.0072 15.4427 22.9996 15.3565C22.6928 11.9815 20.0206 9.30845 16.6453 9.00098C16.5597 8.99426 16.4735 9.02207 16.4099 9.08106C16.3464 9.13974 16.3109 9.22257 16.3118 9.30906C16.365 13.7945 16.9567 15.6273 22.6918 15.69ZM22.6918 16.3098C16.9567 16.3724 16.3653 18.2053 16.3121 22.6907C16.3112 22.7772 16.3467 22.86 16.4103 22.9187C16.4671 22.971 16.5414 23 16.6178 23C16.6269 23 16.6364 22.9997 16.6456 22.9988C20.0209 22.6913 22.6931 20.0186 22.9996 16.6432C23.0072 16.557 22.9785 16.4718 22.9195 16.4082C22.8605 16.3446 22.7783 16.3132 22.6918 16.3098ZM15.3351 9.00251C11.9704 9.31884 9.30683 11.9913 9.00151 15.3571C8.99387 15.4433 9.0226 15.5286 9.08158 15.5922C9.13935 15.6548 9.22095 15.6903 9.30591 15.6903C9.30714 15.6903 9.30836 15.6903 9.30958 15.6903C15.0258 15.6246 15.6159 13.7926 15.6697 9.31028C15.6706 9.22379 15.6349 9.14066 15.5713 9.08198C15.5071 9.0233 15.4212 8.99457 15.3351 9.00251ZM9.30928 16.3095C9.21423 16.2988 9.13965 16.344 9.08128 16.4076C9.0226 16.4712 8.99356 16.5564 9.0012 16.6426C9.30652 20.0085 11.9704 22.6809 15.3351 22.9973C15.3445 22.9982 15.3543 22.9985 15.3638 22.9985C15.4402 22.9985 15.5141 22.9697 15.571 22.9175C15.6346 22.8588 15.6703 22.7757 15.6694 22.6892C15.6156 18.2071 15.0258 16.3752 9.30928 16.3095Z" fill="#345066"/>
</svg>
