<svg width="32" height="32" viewBox="0 0 32 32" fill="none" xmlns="http://www.w3.org/2000/svg">
<path d="M0 8C0 3.58172 3.58172 0 8 0H24C28.4183 0 32 3.58172 32 8V24C32 28.4183 28.4183 32 24 32H8C3.58172 32 0 28.4183 0 24V8Z" fill="#F3F5F6"/>
<path d="M23.6675 12.1228C23.4843 11.4288 22.9422 10.8842 22.253 10.6987C21.0048 10.3613 16.0024 10.3613 16.0024 10.3613C16.0024 10.3613 10.9976 10.3613 9.75181 10.6987C9.06265 10.8842 8.52048 11.4288 8.33735 12.1228C8 13.3782 8 15.9999 8 15.9999C8 15.9999 8 18.6216 8.33494 19.877C8.51807 20.571 9.06024 21.1155 9.7494 21.3011C10.9976 21.6384 16 21.6384 16 21.6384C16 21.6384 21.0048 21.6384 22.2506 21.3011C22.9398 21.1155 23.4819 20.571 23.6651 19.877C24 18.6216 24 15.9999 24 15.9999C24 15.9999 24 13.3782 23.6675 12.1228ZM14.3639 18.3782V13.6216L18.5446 15.9999L14.3639 18.3782Z" fill="#345066"/>
</svg>
